<?xml version="1.0" standalone="no"?>
<!DOCTYPE svg PUBLIC "-//W3C//DTD SVG 20010904//EN"
 "http://www.w3.org/TR/2001/REC-SVG-20010904/DTD/svg10.dtd">
<svg version="1.0" xmlns="http://www.w3.org/2000/svg"
 width="600.000000pt" height="600.000000pt" viewBox="0 0 600.000000 600.000000"
 preserveAspectRatio="xMidYMid meet">
<metadata>
Created by potrace 1.15, written by Peter Selinger 2001-2017
</metadata>
<g transform="translate(0.000000,600.000000) scale(0.100000,-0.100000)"
fill="#000000" stroke="none">
<path d="M2925 5929 c-1402 -3 -2621 -7 -2707 -8 l-158 -1 0 -2935 0 -2935
2930 0 2930 0 0 2945 0 2945 -222 -2 c-123 -1 -1370 -5 -2773 -9z m2945 -2934
l0 -2875 -2875 0 -2875 0 0 2875 0 2875 2875 0 2875 0 0 -2875z"/>
<path d="M5040 5573 c-27 -10 -67 -38 -102 -73 -45 -45 -60 -69 -73 -115 -44
-150 31 -304 170 -352 64 -21 185 -14 242 15 174 90 212 312 77 446 -82 80
-217 115 -314 79z m182 -64 c53 -27 113 -83 132 -123 34 -72 14 -170 -47 -235
-37 -38 -119 -81 -158 -81 -72 0 -165 57 -204 124 -69 121 -26 238 115 316 61
34 94 34 162 -1z"/>
<path d="M990 3060 l0 -2450 1735 0 1735 0 0 2450 0 2450 -1735 0 -1735 0 0
-2450z m3420 2033 l0 -366 -182 6 c-99 4 -858 7 -1685 7 l-1503 0 0 360 0 360
1685 0 1685 0 0 -367z m-46 -409 l46 -7 0 -47 0 -47 -1042 -6 c-574 -4 -1332
-7 -1685 -7 l-643 0 0 60 0 60 1639 0 c901 0 1659 -3 1685 -6z m46 -232 l0
-99 -1042 -6 c-574 -4 -1332 -7 -1685 -7 l-643 0 0 100 0 100 793 3 c435 1
1194 3 1685 5 l892 2 0 -98z m0 -235 l0 -104 -1042 -6 c-574 -4 -1332 -7
-1685 -7 l-643 0 0 105 0 105 793 3 c435 1 1194 3 1685 5 l892 2 0 -103z m0
-240 l0 -104 -1042 -6 c-574 -4 -1332 -7 -1685 -7 l-643 0 0 105 0 105 793 3
c435 1 1194 3 1685 5 l892 2 0 -103z m0 -245 l0 -109 -1042 -6 c-574 -4 -1332
-7 -1685 -7 l-643 0 0 110 0 110 793 3 c435 1 1194 3 1685 5 l892 2 0 -108z
m0 -235 l0 -94 -1037 -6 c-570 -4 -1328 -7 -1685 -7 l-648 0 0 95 0 95 793 3
c435 1 1194 3 1685 5 l892 2 0 -93z m0 -230 l0 -104 -1037 -6 c-570 -4 -1328
-7 -1685 -7 l-648 0 0 105 0 105 798 3 c438 1 1196 3 1685 5 l887 2 0 -103z
m0 -235 l0 -99 -1052 -6 c-578 -4 -1336 -7 -1685 -7 l-633 0 0 100 0 100 798
3 c438 1 1196 3 1685 5 l887 2 0 -98z m0 -250 l0 -119 -1052 -6 c-578 -4
-1336 -7 -1685 -7 l-633 0 0 120 0 120 788 3 c433 1 1191 3 1685 5 l897 2 0
-118z m0 -250 l0 -99 -1052 -6 c-578 -4 -1336 -7 -1685 -7 l-633 0 0 100 0
100 788 3 c433 1 1191 3 1685 5 l897 2 0 -98z m0 -235 l0 -104 -1052 -6 c-578
-4 -1336 -7 -1685 -7 l-633 0 0 105 0 105 788 3 c433 1 1191 3 1685 5 l897 2
0 -103z m0 -240 l0 -104 -1052 -6 c-578 -4 -1336 -7 -1685 -7 l-633 0 0 105 0
105 788 3 c433 1 1191 3 1685 5 l897 2 0 -103z m0 -245 l0 -109 -1052 -6
c-578 -4 -1336 -7 -1685 -7 l-633 0 0 110 0 110 788 3 c433 1 1191 3 1685 5
l897 2 0 -108z m0 -240 l0 -99 -1052 -6 c-578 -4 -1336 -7 -1685 -7 l-633 0 0
105 0 105 1685 0 1685 0 0 -98z m0 -235 l0 -104 -1052 -6 c-578 -4 -1336 -7
-1685 -7 l-633 0 0 105 0 105 788 3 c433 1 1191 3 1685 5 l897 2 0 -103z m0
-245 l0 -109 -1052 -6 c-578 -4 -1336 -7 -1685 -7 l-633 0 0 110 0 110 788 3
c433 1 1191 3 1685 5 l897 2 0 -108z m0 -245 l0 -104 -1052 -6 c-578 -4 -1336
-7 -1685 -7 l-633 0 0 110 0 110 1685 0 1685 0 0 -103z m0 -162 l0 -25 -1685
0 c-1677 0 -1685 0 -1685 20 0 22 -147 20 2473 28 l897 2 0 -25z"/>
<path d="M1745 5398 l-19 -32 -12 29 -13 30 -1 -29 c0 -23 -3 -26 -14 -17 -12
10 -13 8 -9 -10 5 -19 3 -20 -18 -15 -24 7 -24 7 -4 -9 11 -9 25 -19 32 -23 6
-4 13 -25 15 -47 l3 -40 -41 -3 c-34 -2 -45 1 -60 21 -16 19 -24 22 -47 16
-18 -5 -41 -2 -62 7 -57 23 -153 18 -213 -12 -206 -102 -188 -417 28 -489 62
-21 159 -17 208 9 40 21 97 77 117 116 24 47 36 126 25 173 -7 33 -6 45 6 58
14 16 14 20 -1 42 -16 25 -16 25 14 32 40 8 55 29 46 62 -5 23 -4 25 9 14 9
-8 16 -10 16 -6 0 4 12 -1 28 -10 l27 -18 -18 21 c-18 20 -18 20 5 24 23 3 22
4 -6 19 l-29 16 24 18 24 17 -28 -6 c-25 -6 -28 -4 -23 14 3 11 9 29 12 40 8
29 1 25 -21 -12z m-259 -182 c113 -52 154 -174 97 -287 -74 -146 -277 -153
-359 -13 -47 80 -42 168 14 243 29 39 112 81 162 81 19 0 58 -11 86 -24z"/>
<path d="M1336 5215 c-49 -17 -93 -59 -117 -110 -36 -77 -18 -158 47 -224 43
-42 45 -44 92 -37 53 7 72 25 72 71 0 17 5 36 11 42 8 8 0 18 -27 37 l-38 26
41 16 c38 15 41 19 36 45 -5 25 -2 29 16 29 30 0 26 23 -9 58 -16 17 -30 38
-30 46 0 20 -40 20 -94 1z"/>
<path d="M1950 5185 l0 -25 740 0 740 0 0 25 0 25 -740 0 -740 0 0 -25z"/>
<path d="M3860 5050 c0 -19 7 -20 205 -20 198 0 205 1 205 20 0 19 -7 20 -205
20 -198 0 -205 -1 -205 -20z"/>
<path d="M1950 4935 l0 -25 750 0 750 0 0 25 0 25 -750 0 -750 0 0 -25z"/>
</g>
</svg>
